<mxfile host="drawio-plugin" modified="2021-09-01T11:19:07.198Z" agent="5.0 (Macintosh; Intel Mac OS X 12_0_0) AppleWebKit/537.36 (KHTML, like Gecko) Chrome/89.0.4389.114 Safari/537.36" etag="vYkkFPB8uBlwIw9nenTD" version="14.7.4" type="embed"><diagram id="o7Gfd1zTd6OblqWDKyMa" name="Page-1"><mxGraphModel dx="410" dy="341" grid="1" gridSize="10" guides="1" tooltips="1" connect="1" arrows="1" fold="1" page="1" pageScale="1" pageWidth="583" pageHeight="827" background="#FFFFFF" math="0" shadow="0"><root><mxCell id="0"/><mxCell id="1" parent="0"/><mxCell id="h-AvHXBC9NQrknHlCWsK-1" value="" style="whiteSpace=wrap;html=1;strokeColor=#666666;fillColor=#f5f5f5;fontColor=#333333;" parent="1" vertex="1"><mxGeometry x="220" y="80" width="360" height="470" as="geometry"/></mxCell><mxCell id="h-AvHXBC9NQrknHlCWsK-2" value="Snatch - Food delivery platform" style="text;html=1;align=center;verticalAlign=middle;resizable=0;points=[];autosize=1;strokeColor=none;" parent="1" vertex="1"><mxGeometry x="300" y="50" width="180" height="20" as="geometry"/></mxCell><mxCell id="NHYrob0BwCFq52x1jnMb-43" style="edgeStyle=orthogonalEdgeStyle;rounded=1;orthogonalLoop=1;jettySize=auto;html=1;fontSize=9;endArrow=open;endFill=0;strokeWidth=1;fillColor=#dae8fc;strokeColor=#6c8ebf;" parent="1" source="h-AvHXBC9NQrknHlCWsK-3" edge="1"><mxGeometry relative="1" as="geometry"><mxPoint x="371" y="380" as="targetPoint"/><Array as="points"><mxPoint x="330" y="380"/><mxPoint x="330" y="380"/></Array></mxGeometry></mxCell><mxCell id="NHYrob0BwCFq52x1jnMb-44" value="Pay" style="edgeLabel;html=1;align=center;verticalAlign=middle;resizable=0;points=[];fontSize=9;" parent="NHYrob0BwCFq52x1jnMb-43" vertex="1" connectable="0"><mxGeometry x="-0.0966" relative="1" as="geometry"><mxPoint as="offset"/></mxGeometry></mxCell><mxCell id="h-AvHXBC9NQrknHlCWsK-3" value="Customer" style="shape=umlActor;verticalLabelPosition=bottom;verticalAlign=top;html=1;outlineConnect=0;fillColor=#d5e8d4;strokeColor=#82b366;" parent="1" vertex="1"><mxGeometry x="170" y="361" width="30" height="60" as="geometry"/></mxCell><mxCell id="NHYrob0BwCFq52x1jnMb-30" style="edgeStyle=orthogonalEdgeStyle;rounded=0;orthogonalLoop=1;jettySize=auto;html=1;entryX=0;entryY=0.5;entryDx=0;entryDy=0;fontSize=9;endArrow=none;endFill=0;strokeWidth=1;fillColor=#dae8fc;strokeColor=#6c8ebf;" parent="1" source="h-AvHXBC9NQrknHlCWsK-8" target="NHYrob0BwCFq52x1jnMb-15" edge="1"><mxGeometry relative="1" as="geometry"><Array as="points"><mxPoint x="376" y="130"/></Array></mxGeometry></mxCell><mxCell id="NHYrob0BwCFq52x1jnMb-36" style="edgeStyle=orthogonalEdgeStyle;rounded=1;orthogonalLoop=1;jettySize=auto;html=1;exitX=1;exitY=0.3333333333333333;exitDx=0;exitDy=0;exitPerimeter=0;fontSize=9;endArrow=open;endFill=0;strokeWidth=1;fillColor=#dae8fc;strokeColor=#6c8ebf;" parent="1" source="h-AvHXBC9NQrknHlCWsK-8" target="NHYrob0BwCFq52x1jnMb-35" edge="1"><mxGeometry relative="1" as="geometry"/></mxCell><mxCell id="NHYrob0BwCFq52x1jnMb-39" value="Deliver order" style="edgeLabel;html=1;align=center;verticalAlign=middle;resizable=0;points=[];fontSize=9;" parent="NHYrob0BwCFq52x1jnMb-36" vertex="1" connectable="0"><mxGeometry x="0.4545" relative="1" as="geometry"><mxPoint as="offset"/></mxGeometry></mxCell><mxCell id="h-AvHXBC9NQrknHlCWsK-8" value="Driver" style="shape=umlActor;verticalLabelPosition=bottom;verticalAlign=top;html=1;outlineConnect=0;fillColor=#d5e8d4;strokeColor=#82b366;" parent="1" vertex="1"><mxGeometry x="160" y="110" width="30" height="60" as="geometry"/></mxCell><mxCell id="NHYrob0BwCFq52x1jnMb-54" style="edgeStyle=orthogonalEdgeStyle;orthogonalLoop=1;jettySize=auto;html=1;exitX=0;exitY=0.3333333333333333;exitDx=0;exitDy=0;exitPerimeter=0;entryX=0.5;entryY=0;entryDx=0;entryDy=0;fontSize=9;endArrow=none;endFill=0;strokeWidth=1;curved=1;" parent="1" source="h-AvHXBC9NQrknHlCWsK-9" target="NHYrob0BwCFq52x1jnMb-4" edge="1"><mxGeometry relative="1" as="geometry"><Array as="points"><mxPoint x="590" y="310"/><mxPoint x="517" y="310"/></Array></mxGeometry></mxCell><mxCell id="h-AvHXBC9NQrknHlCWsK-9" value="Resturant" style="shape=umlActor;verticalLabelPosition=bottom;verticalAlign=top;html=1;outlineConnect=0;fillColor=#d5e8d4;strokeColor=#82b366;" parent="1" vertex="1"><mxGeometry x="590" y="274" width="30" height="60" as="geometry"/></mxCell><mxCell id="NHYrob0BwCFq52x1jnMb-16" style="edgeStyle=orthogonalEdgeStyle;rounded=0;orthogonalLoop=1;jettySize=auto;html=1;exitX=0.5;exitY=0;exitDx=0;exitDy=0;entryX=0.5;entryY=1;entryDx=0;entryDy=0;fontSize=9;endArrow=open;endFill=0;dashed=1;" parent="1" source="NHYrob0BwCFq52x1jnMb-1" target="NHYrob0BwCFq52x1jnMb-15" edge="1"><mxGeometry relative="1" as="geometry"/></mxCell><mxCell id="NHYrob0BwCFq52x1jnMb-17" value="&amp;lt;&amp;lt;extends&amp;gt;&amp;gt;" style="edgeLabel;html=1;align=center;verticalAlign=middle;resizable=0;points=[];fontSize=9;" parent="NHYrob0BwCFq52x1jnMb-16" vertex="1" connectable="0"><mxGeometry x="-0.2083" y="-1" relative="1" as="geometry"><mxPoint as="offset"/></mxGeometry></mxCell><mxCell id="NHYrob0BwCFq52x1jnMb-47" style="edgeStyle=orthogonalEdgeStyle;orthogonalLoop=1;jettySize=auto;html=1;entryX=1;entryY=0.3333333333333333;entryDx=0;entryDy=0;entryPerimeter=0;fontSize=9;endArrow=none;endFill=0;strokeWidth=1;curved=1;fillColor=#dae8fc;strokeColor=#6c8ebf;" parent="1" source="NHYrob0BwCFq52x1jnMb-1" target="h-AvHXBC9NQrknHlCWsK-3" edge="1"><mxGeometry relative="1" as="geometry"><Array as="points"><mxPoint x="408" y="330"/><mxPoint x="230" y="330"/><mxPoint x="230" y="381"/></Array></mxGeometry></mxCell><mxCell id="NHYrob0BwCFq52x1jnMb-48" value="Create order" style="edgeLabel;html=1;align=center;verticalAlign=middle;resizable=0;points=[];fontSize=9;" parent="NHYrob0BwCFq52x1jnMb-47" vertex="1" connectable="0"><mxGeometry x="-0.1266" y="-3" relative="1" as="geometry"><mxPoint as="offset"/></mxGeometry></mxCell><mxCell id="NHYrob0BwCFq52x1jnMb-51" style="edgeStyle=orthogonalEdgeStyle;rounded=0;orthogonalLoop=1;jettySize=auto;html=1;entryX=0;entryY=0.3333333333333333;entryDx=0;entryDy=0;entryPerimeter=0;fontSize=9;endArrow=none;endFill=0;strokeWidth=1;" parent="1" source="NHYrob0BwCFq52x1jnMb-1" target="h-AvHXBC9NQrknHlCWsK-9" edge="1"><mxGeometry relative="1" as="geometry"/></mxCell><mxCell id="NHYrob0BwCFq52x1jnMb-52" value="&amp;lt;&amp;lt;include&amp;gt;&amp;gt;" style="edgeLabel;html=1;align=center;verticalAlign=middle;resizable=0;points=[];fontSize=9;" parent="NHYrob0BwCFq52x1jnMb-51" vertex="1" connectable="0"><mxGeometry x="-0.172" y="1" relative="1" as="geometry"><mxPoint as="offset"/></mxGeometry></mxCell><mxCell id="NHYrob0BwCFq52x1jnMb-1" value="&lt;font style=&quot;font-size: 9px&quot;&gt;Order food&lt;/font&gt;" style="ellipse;whiteSpace=wrap;html=1;fillColor=#d5e8d4;strokeColor=#82b366;fontColor=#000000;" parent="1" vertex="1"><mxGeometry x="370" y="270" width="75" height="50" as="geometry"/></mxCell><mxCell id="NHYrob0BwCFq52x1jnMb-4" value="&lt;font style=&quot;font-size: 9px&quot;&gt;Cook order&lt;/font&gt;" style="ellipse;whiteSpace=wrap;html=1;fillColor=#d5e8d4;strokeColor=#82b366;fontColor=#000000;" parent="1" vertex="1"><mxGeometry x="480" y="330" width="75" height="50" as="geometry"/></mxCell><mxCell id="NHYrob0BwCFq52x1jnMb-15" value="&lt;font style=&quot;font-size: 9px&quot;&gt;Arrange pickup&lt;/font&gt;" style="ellipse;whiteSpace=wrap;html=1;fillColor=#d5e8d4;strokeColor=#82b366;" parent="1" vertex="1"><mxGeometry x="370" y="100" width="75" height="50" as="geometry"/></mxCell><mxCell id="NHYrob0BwCFq52x1jnMb-41" style="edgeStyle=orthogonalEdgeStyle;rounded=1;orthogonalLoop=1;jettySize=auto;html=1;exitX=0.5;exitY=1;exitDx=0;exitDy=0;entryX=0.5;entryY=0;entryDx=0;entryDy=0;fontSize=9;endArrow=classic;endFill=0;strokeWidth=1;dashed=1;" parent="1" source="NHYrob0BwCFq52x1jnMb-19" target="NHYrob0BwCFq52x1jnMb-40" edge="1"><mxGeometry relative="1" as="geometry"/></mxCell><mxCell id="NHYrob0BwCFq52x1jnMb-42" value="&amp;lt;&amp;lt;include&amp;gt;&amp;gt;" style="edgeLabel;html=1;align=center;verticalAlign=middle;resizable=0;points=[];fontSize=9;" parent="NHYrob0BwCFq52x1jnMb-41" vertex="1" connectable="0"><mxGeometry x="-0.1036" relative="1" as="geometry"><mxPoint as="offset"/></mxGeometry></mxCell><mxCell id="NHYrob0BwCFq52x1jnMb-19" value="&lt;font size=&quot;1&quot;&gt;Pay via app&lt;/font&gt;" style="ellipse;whiteSpace=wrap;html=1;fillColor=#d5e8d4;strokeColor=#82b366;fontColor=#000000;" parent="1" vertex="1"><mxGeometry x="370" y="350" width="75" height="50" as="geometry"/></mxCell><mxCell id="NHYrob0BwCFq52x1jnMb-35" value="&lt;font style=&quot;font-size: 9px&quot;&gt;Delivery&lt;/font&gt;" style="ellipse;whiteSpace=wrap;html=1;fillColor=#d5e8d4;strokeColor=#82b366;fontColor=#000000;" parent="1" vertex="1"><mxGeometry x="230" y="250" width="75" height="50" as="geometry"/></mxCell><mxCell id="NHYrob0BwCFq52x1jnMb-40" value="&lt;font size=&quot;1&quot;&gt;Platform comission&lt;/font&gt;" style="ellipse;whiteSpace=wrap;html=1;fillColor=#d5e8d4;strokeColor=#82b366;" parent="1" vertex="1"><mxGeometry x="370" y="490" width="75" height="50" as="geometry"/></mxCell></root></mxGraphModel></diagram></mxfile>